<?xml version="1.0" encoding="UTF-8"?>
<!DOCTYPE svg PUBLIC "-//W3C//DTD SVG 1.1//EN" "http://www.w3.org/Graphics/SVG/1.1/DTD/svg11.dtd">
<!-- Creator: CorelDRAW X8 -->
<svg xmlns="http://www.w3.org/2000/svg" xml:space="preserve" width="80mm" height="60mm" version="1.1" style="shape-rendering:geometricPrecision; text-rendering:geometricPrecision; image-rendering:optimizeQuality; fill-rule:evenodd; clip-rule:evenodd"
viewBox="0 0 8000 6000"
 xmlns:xlink="http://www.w3.org/1999/xlink">
 <defs>
  <style type="text/css">
   <![CDATA[
    .fil0 {fill:black}
   ]]>
  </style>
 </defs>
 <g id="Litera_x0020_E">
  <metadata id="CorelCorpID_0Corel-Layer"/>
  <polygon class="fil0" points="3607,3213 3973,2578 2542,2578 2175,3213 "/>
  <polygon class="fil0" points="3223,1338 1040,5118 674,4483 2490,1338 "/>
  <polygon class="fil0" points="1445,4483 2874,4483 3240,5118 1079,5118 "/>
  <polygon class="fil0" points="2507,1308 4707,1308 4340,673 2874,673 "/>
 </g>
 <g id="Litera_x0020_S">
  <metadata id="CorelCorpID_1Corel-Layer"/>
  <polygon class="fil0" points="5073,673 4724,1278 5091,1913 5807,673 "/>
  <polygon class="fil0" points="5474,1308 6906,1308 7273,673 5841,673 "/>
  <polygon class="fil0" points="3240,5118 4672,5118 5039,4483 3607,4483 "/>
  <polygon class="fil0" points="4707,5118 5807,3213 6173,3848 5440,5118 "/>
  <polygon class="fil0" points="4707,1308 4340,1943 5423,3818 5789,3183 "/>
 </g>
</svg>
